<?xml version="1.0" encoding="utf-8"?>
<svg viewBox="0 0 500 500" xmlns="http://www.w3.org/2000/svg">
  <path style="stroke: rgb(0, 0, 0);" d="M 256.704 163.568 L 256.704 351.251 C 256.985 351.251 255.044 368.641 262.245 382.531 C 269.447 396.423 284.016 401.616 286.93 402.689 C 286.93 402.807 294.814 406.189 311.183 403.482 C 327.558 400.775 341.225 382.368 341.347 382.531 C 341.347 382.531 345.265 378.024 349.305 367.597 C 349.305 367.597 353.668 367.724 365.271 365.454 C 376.873 363.183 385.521 358.239 394.829 349.02 C 404.136 339.801 427.11 315.212 422.284 266.207 C 422.284 266.207 421.181 244.197 404.795 216.762 C 404.795 216.762 411.752 198.501 409.737 179.037 C 407.724 159.573 403.259 153.252 405.926 159.143 C 406.101 158.897 400.229 144.207 392.004 133.34 C 383.785 122.473 375.264 116.728 375.001 116.909 C 374.772 115.473 358.769 110.087 358.496 110.469 C 358.223 110.851 343.888 106.834 331.791 113.785 C 331.791 113.785 330.681 105.167 316.873 93.059 C 303.067 80.952 288.336 84.096 279.129 88.337 C 278.871 89.043 274.387 90.322 267.295 98.855 C 267.172 98.624 257.745 111.285 257.301 128.966 L 256.704 163.568 Z"/>
  <path style="stroke: rgb(0, 0, 0); fill: rgb(255, 255, 255);" d="M 275.49 133.059 L 275.583 359.494 C 276.274 366.761 276.851 376.13 288.956 383.546 C 301.06 390.962 316.188 384.268 316.188 384.268 C 316.188 384.268 339.296 372.001 341.11 342.179 C 342.928 312.357 330.874 300.811 330.874 300.811 C 330.874 300.811 327.741 294.078 329.064 289.507 C 330.385 284.936 336.323 284.698 336.323 284.698 C 336.323 284.698 341.442 285.418 347.383 298.887 C 353.328 312.357 351.673 308.987 354.154 324.14 C 356.628 339.292 353.821 348.19 353.821 348.19 C 353.821 348.19 361.413 350.116 376.926 341.939 C 376.926 341.939 384.504 337.804 394.809 320.418 C 405.107 303.033 404.93 289.074 404.93 289.074 C 404.93 289.074 408.003 267.476 401.497 251.409 C 394.99 235.341 387.395 213.479 361.728 207.948 C 361.728 207.948 365.995 214.285 367.783 227.118 C 369.572 239.952 365.995 245.535 365.995 245.535 C 365.995 245.535 364.59 250.555 359.744 248.509 C 354.891 246.464 354.634 243.674 353.868 239.767 C 353.099 235.859 356.028 223.961 347.238 214.326 C 338.451 204.69 321.216 213.531 308.554 235.117 C 295.893 256.702 296.334 280.035 296.334 280.035 C 296.155 284.206 294.709 285.637 291.829 286.64 C 288.956 287.645 285.005 288.138 284.314 279.945 C 283.613 271.752 283.24 262.872 287.489 247.394 C 291.745 231.916 306.004 212.787 306.004 212.787 C 306.004 212.787 345.958 164.079 390.757 204.628 C 390.757 204.628 395.098 192.913 391.656 172.824 C 388.205 152.737 375.318 131.697 353.744 127.604 C 332.168 123.51 318.126 143.044 318.126 143.044 C 318.126 143.044 312.635 148.064 308.554 159.038 C 304.469 170.012 296.943 167.312 295.301 160.076 C 293.658 152.839 304.667 131.269 319.086 119.364 C 319.086 119.364 318.254 110.676 303.956 104.725 C 303.956 104.725 281.118 94.705 275.877 125.743 L 275.49 133.059 Z"/>
  <path style="stroke: rgb(0, 0, 0);" d="M 232.802 124.676 L 233.342 358.575 C 233.342 358.575 232.231 382.599 214.678 397.557 C 197.134 412.515 180.189 399.736 175.745 395.565 C 171.296 391.392 169.664 392.661 160.886 375.799 C 160.886 375.799 151.537 380.967 138.183 377.976 C 124.83 374.985 116.625 371.176 102.129 354.857 C 87.633 338.54 77.564 304.849 89.783 269.229 C 89.233 270.663 80.11 253.374 78.983 250.974 C 61.486 213.684 75.112 118.254 142.764 120.155 C 142.764 120.155 154.32 96.445 167.183 89.15 C 180.045 81.853 193.395 77.381 212.966 87.79 C 223.745 95.48 230.864 104.366 232.802 124.676 Z"/>
  <path style="stroke: rgb(0, 0, 0); fill: rgb(255, 255, 255);" d="M 215.591 140.544 L 215.644 359.224 C 215.402 365.98 204.684 411.492 172.054 368.612 C 172.054 368.612 184.327 355.87 185.697 354.054 C 187.065 352.238 192.927 343.888 195.78 336.503 C 198.638 329.118 197.01 322.841 191.606 321.409 C 186.201 319.977 177.14 340.952 164.607 353.139 C 152.076 365.327 87.549 355.772 100.648 284.482 C 100.648 284.482 119.762 304.069 150.522 298.612 C 181.28 293.155 207.855 251.212 206.754 206.9 C 206.184 198.555 196.594 188.767 193.145 210.627 C 189.697 232.489 192.485 242.096 169.417 269.712 C 169.417 269.712 158.344 281.816 145.599 272.503 C 145.768 272.577 136.867 266.07 137.339 248.518 C 137.748 233.355 128.926 233.944 126.189 243.914 C 123.539 253.564 129.128 279.153 130.754 279.823 C 130.754 279.823 70.453 259.017 90.321 181.337 C 91.403 177.106 105.161 135.849 137.339 138.949 C 137.339 138.949 135.465 164.041 139.436 176.767 C 143.412 189.494 145.126 192.753 152.54 202.52 C 159.951 212.286 168.312 197.126 162.871 189.575 C 157.427 182.024 148.328 167.952 150.969 143.867 C 153.614 119.782 171.047 106.474 171.624 106.31 C 191.582 93.105 217.052 106.703 215.591 140.544 Z"/>
</svg>